<svg width="169" height="164" viewBox="0 0 169 164" fill="none" xmlns="http://www.w3.org/2000/svg">
<g clip-path="url(#clip0_87_24141)">
<path d="M106.75 36.8831H61.44C60.4075 36.8843 59.4176 37.2947 58.6875 38.0242C57.9574 38.7537 57.5467 39.7427 57.5455 40.7744V141.391L57.0262 141.55L45.911 144.951C45.3842 145.111 44.8152 145.056 44.3289 144.798C43.8427 144.54 43.4788 144.099 43.3173 143.573L10.2547 35.6664C10.0938 35.14 10.1486 34.5714 10.4072 34.0854C10.6657 33.5994 11.1067 33.2359 11.6334 33.0747L28.7619 27.8344L78.4179 12.6478L95.5462 7.40749C95.8069 7.32733 96.0808 7.29932 96.3524 7.32506C96.6239 7.3508 96.8876 7.42979 97.1286 7.5575C97.3695 7.6852 97.5828 7.85913 97.7564 8.06932C97.93 8.27951 98.0604 8.52183 98.1401 8.78243L106.591 36.3642L106.75 36.8831Z" fill="#DADBE1"/>
<path d="M116.637 36.3645L106.451 3.12217C106.282 2.56829 106.005 2.05321 105.636 1.60634C105.267 1.15948 104.814 0.789608 104.302 0.517852C103.79 0.246097 103.23 0.0777846 102.653 0.0225409C102.076 -0.0327027 101.493 0.0262045 100.939 0.19589L76.8577 7.56089L27.2043 22.7501L3.12274 30.1177C2.00404 30.4609 1.06733 31.2336 0.518232 32.2662C-0.0308697 33.2987 -0.147506 34.5068 0.193928 35.6252L35.0064 149.234C35.2838 150.137 35.8434 150.927 36.6032 151.489C37.3631 152.05 38.283 152.354 39.2282 152.355C39.6657 152.355 40.1006 152.289 40.5185 152.16L57.0264 147.112L57.5457 146.951V146.409L57.0264 146.567L40.3654 151.665C39.3779 151.966 38.3114 151.863 37.3997 151.379C36.4881 150.895 35.8057 150.069 35.5023 149.084L0.692542 35.4721C0.542234 34.9836 0.489848 34.4703 0.538381 33.9615C0.586914 33.4527 0.73541 32.9585 0.975374 32.5072C1.21534 32.0558 1.54206 31.6562 1.93681 31.3312C2.33157 31.0062 2.78661 30.7622 3.27588 30.6132L27.3574 23.2456L77.0109 8.05898L101.092 0.691392C101.464 0.578232 101.849 0.520533 102.237 0.520172C103.07 0.52204 103.88 0.790272 104.549 1.28558C105.218 1.78088 105.711 2.47724 105.956 3.27264L116.094 36.3646L116.255 36.8834H116.795L116.637 36.3645Z" fill="#DADBE1"/>
<path d="M31.8528 33.1596C31.3524 33.1592 30.8652 32.9986 30.4629 32.7014C30.0605 32.4041 29.764 31.9858 29.617 31.5079L26.2727 20.5935C26.1829 20.3004 26.1517 19.9924 26.1809 19.6872C26.2102 19.3819 26.2994 19.0855 26.4434 18.8147C26.5873 18.5439 26.7833 18.3041 27.02 18.109C27.2568 17.9139 27.5296 17.7673 27.8231 17.6776L73.5038 3.70412C74.0964 3.52344 74.7365 3.58506 75.2837 3.87545C75.8308 4.16585 76.2404 4.6613 76.4223 5.25305L79.7666 16.1675C79.9473 16.7596 79.8856 17.3992 79.5949 17.9459C79.3043 18.4925 78.8085 18.9017 78.2163 19.0836L32.5355 33.0571C32.3143 33.1249 32.0842 33.1595 31.8528 33.1596Z" fill="#78797D"/>
<path d="M49.3714 11.6622C52.2393 11.6622 54.5642 9.33929 54.5642 6.47379C54.5642 3.60829 52.2393 1.28534 49.3714 1.28534C46.5035 1.28534 44.1786 3.60829 44.1786 6.47379C44.1786 9.33929 46.5035 11.6622 49.3714 11.6622Z" fill="#78797D"/>
<path d="M49.3714 9.75926C51.1874 9.75926 52.6596 8.2883 52.6596 6.47378C52.6596 4.65926 51.1874 3.18829 49.3714 3.18829C47.5553 3.18829 46.0831 4.65926 46.0831 6.47378C46.0831 8.2883 47.5553 9.75926 49.3714 9.75926Z" fill="#F1F2F5"/>
<path d="M156.468 151.029H68.7101C68.125 151.028 67.564 150.796 67.1503 150.382C66.7366 149.969 66.5038 149.408 66.5032 148.824V43.7578C66.5038 43.1731 66.7366 42.6126 67.1503 42.1992C67.564 41.7859 68.125 41.5533 68.7101 41.5527H156.468C157.053 41.5533 157.614 41.7859 158.028 42.1993C158.442 42.6127 158.674 43.1731 158.675 43.7578V148.824C158.674 149.408 158.442 149.969 158.028 150.382C157.614 150.796 157.053 151.028 156.468 151.029Z" fill="#DADBE1"/>
<path d="M116.094 36.3642H61.4401C60.27 36.3659 59.1483 36.831 58.3209 37.6577C57.4935 38.4844 57.0279 39.6052 57.0262 40.7744V146.567L57.5455 146.409V40.7744C57.5468 39.7427 57.9575 38.7537 58.6876 38.0242C59.4177 37.2947 60.4076 36.8843 61.4401 36.883H116.255L116.094 36.3642ZM163.738 36.3642H61.4401C60.27 36.3659 59.1483 36.831 58.3209 37.6577C57.4935 38.4844 57.0279 39.6052 57.0262 40.7744V159.59C57.0279 160.759 57.4935 161.88 58.3209 162.706C59.1483 163.533 60.27 163.998 61.4401 164H163.738C164.908 163.998 166.03 163.533 166.857 162.706C167.685 161.88 168.15 160.759 168.152 159.59V40.7744C168.15 39.6052 167.685 38.4844 166.857 37.6577C166.03 36.831 164.908 36.3659 163.738 36.3642ZM167.633 159.59C167.631 160.621 167.221 161.611 166.491 162.34C165.76 163.07 164.771 163.48 163.738 163.481H61.4401C60.4076 163.48 59.4177 163.07 58.6876 162.34C57.9575 161.611 57.5468 160.621 57.5455 159.59V40.7744C57.5468 39.7427 57.9575 38.7537 58.6876 38.0242C59.4177 37.2947 60.4076 36.8843 61.4401 36.883H163.738C164.771 36.8843 165.76 37.2947 166.491 38.0242C167.221 38.7537 167.631 39.7427 167.633 40.7744V159.59Z" fill="#DADBE1"/>
<path d="M136.476 47.7788H88.7024C88.0828 47.7781 87.4889 47.5319 87.0508 47.0942C86.6127 46.6565 86.3663 46.063 86.3656 45.444V34.0294C86.3663 33.4104 86.6127 32.817 87.0508 32.3793C87.4889 31.9415 88.0828 31.6953 88.7024 31.6946H136.476C137.096 31.6953 137.689 31.9415 138.128 32.3793C138.566 32.817 138.812 33.4104 138.813 34.0294V45.444C138.812 46.063 138.566 46.6565 138.128 47.0942C137.69 47.5319 137.096 47.7781 136.476 47.7788Z" fill="#78797D"/>
<path d="M112.589 32.4729C115.457 32.4729 117.782 30.15 117.782 27.2845C117.782 24.419 115.457 22.096 112.589 22.096C109.721 22.096 107.396 24.419 107.396 27.2845C107.396 30.15 109.721 32.4729 112.589 32.4729Z" fill="#78797D"/>
<path d="M112.589 30.4447C114.336 30.4447 115.752 29.0298 115.752 27.2845C115.752 25.5391 114.336 24.1242 112.589 24.1242C110.842 24.1242 109.426 25.5391 109.426 27.2845C109.426 29.0298 110.842 30.4447 112.589 30.4447Z" fill="#F1F2F5"/>
</g>
<defs>
<clipPath id="clip0_87_24141">
<rect width="168.152" height="164" fill="white"/>
</clipPath>
</defs>
</svg>
