<svg width="63" height="62" viewBox="0 0 63 62" fill="none" xmlns="http://www.w3.org/2000/svg">
<rect x="0.5" width="62" height="62" rx="4" fill="#DCECFF"/>
<path d="M43.3198 28.692C43.4736 29.5157 43.5573 30.377 43.5573 31.2757C43.5573 38.3057 38.8523 43.3045 31.7461 43.3045C30.13 43.305 28.5297 42.987 27.0366 42.3688C25.5434 41.7506 24.1868 40.8442 23.044 39.7015C21.9013 38.5588 20.9949 37.2021 20.3767 35.709C19.7585 34.2158 19.4406 32.6155 19.4411 30.9995C19.4406 29.3834 19.7585 27.7831 20.3767 26.29C20.9949 24.7968 21.9013 23.4401 23.044 22.2974C24.1868 21.1547 25.5434 20.2483 27.0366 19.6301C28.5297 19.0119 30.13 18.694 31.7461 18.6945C35.0686 18.6945 37.8448 19.917 39.9748 21.902L36.5061 25.3707V25.362C35.2148 24.132 33.5761 23.5007 31.7461 23.5007C27.6861 23.5007 24.3861 26.9307 24.3861 30.992C24.3861 35.052 27.6861 38.4895 31.7461 38.4895C35.4298 38.4895 37.9373 36.3832 38.4523 33.4907H31.7461V28.692H43.3211H43.3198Z" fill="#3175FA"/>
</svg>
