<svg width="221" height="76" viewBox="0 0 221 76" fill="none" xmlns="http://www.w3.org/2000/svg">
<path fill-rule="evenodd" clip-rule="evenodd" d="M11.2458 0C10.9942 0 10.7596 0.127455 10.6227 0.338618L8.86239 3.05357C8.54204 3.54766 8.89666 4.20023 9.48551 4.20023H28.7934C29.331 4.20023 29.6905 3.6467 29.4718 3.15556L28.2631 0.440602C28.1438 0.172642 27.878 0 27.5847 0H11.2458ZM1.03611 32.2225L12.031 6.54047C12.1479 6.26727 12.4165 6.09011 12.7137 6.09011H26.1861C26.4949 6.09011 26.7714 6.28114 26.8807 6.56991L31.7059 19.3208L36.5937 32.2375C36.6693 32.4372 36.6553 32.6596 36.5553 32.8482L20.9651 62.2549C20.6025 62.9389 19.5664 62.6812 19.5664 61.9071V28.5672C19.5664 28.5503 19.5657 28.5337 19.5644 28.5171C21.7003 28.2122 23.3424 26.3737 23.3424 24.1513C23.3424 21.7156 21.37 19.7411 18.9369 19.7411C16.5038 19.7411 14.5313 21.7156 14.5313 24.1513C14.5313 26.3738 16.1736 28.2124 18.3096 28.5172C18.3083 28.5337 18.3076 28.5504 18.3076 28.5672V61.9474C18.3076 62.7189 17.2769 62.9788 16.9111 62.2994L1.06493 32.8668C0.957694 32.6676 0.947086 32.4304 1.03611 32.2225ZM18.7057 66.1833C18.5456 66.561 18.722 66.9968 19.0996 67.1569C20.7153 67.8418 23.8998 68.6777 28.0586 69.5451C32.2399 70.4172 37.4653 71.3327 43.2032 72.1659C54.6747 73.8316 68.2288 75.1729 79.6121 75.1729C93.2209 75.1729 103.587 73.4669 114.63 71.6496L114.675 71.6422C115.17 71.5607 115.667 71.4791 116.165 71.3973C127.785 69.4899 140.375 67.5348 158.491 67.3238C175.517 67.1255 189.405 68.5742 199.693 70.4121C210.002 72.2541 216.648 74.4784 219.219 75.8037C219.583 75.9916 220.031 75.8484 220.219 75.4839C220.407 75.1194 220.264 74.6715 219.899 74.4835C217.131 73.0563 210.312 70.8006 199.954 68.95C189.574 67.0955 175.593 65.6392 158.474 65.8386C140.245 66.0509 127.569 68.0203 115.924 69.9317C115.431 70.0125 114.94 70.0933 114.451 70.1738L114.409 70.1807C103.358 71.9992 93.0973 73.6876 79.6121 73.6876C68.3265 73.6876 54.8493 72.3561 43.4167 70.696C37.7026 69.8663 32.5078 68.9558 28.3618 68.0911C24.1934 67.2217 21.1436 66.4102 19.6793 65.7894C19.3017 65.6294 18.8658 65.8057 18.7057 66.1833ZM187.983 23.1958C185.978 24.4368 183.817 25.6008 181.565 26.6442H199.061C196.659 25.6077 194.435 24.4522 192.453 23.2204C191.089 22.3724 189.35 22.3505 187.983 23.1958ZM164.532 27.4534C174.001 25.3147 184.741 21.2685 190.4 15.8929L193.081 17.3075C193.849 17.7124 193.958 18.747 193.345 19.361C198.599 22.7136 208.704 25.6615 217.134 26.9332C216.609 27.4591 216.004 28.1972 215.44 28.9696C214.44 30.3396 212.752 31.1585 211.108 30.743C207.414 29.8098 203.561 28.5104 199.927 26.991C199.927 28.8426 198.426 30.3435 196.575 30.3435H183.648C181.892 30.3435 180.468 28.9202 180.468 27.1644C177.296 28.576 173.955 29.8192 170.626 30.8428C168.851 31.3883 166.965 30.4811 165.85 28.997C165.424 28.429 164.969 27.8914 164.532 27.4534ZM197.759 36.355C197.234 36.355 196.809 36.7801 196.809 37.3045V41.2683H205.156C205.68 41.2683 206.105 40.8432 206.105 40.3188V37.3045C206.105 36.7801 205.68 36.355 205.156 36.355H197.759ZM206.985 44.9098H192.363V36.5112C192.363 34.4138 194.063 32.7135 196.161 32.7135H206.985C209.082 32.7135 210.783 34.4138 210.783 36.5112V41.1121C210.783 43.2095 209.082 44.9098 206.985 44.9098ZM176.683 36.355C176.159 36.355 175.734 36.7801 175.734 37.3045V41.2683H183.907C184.432 41.2683 184.857 40.8432 184.857 40.3188V37.3045C184.857 36.7801 184.432 36.355 183.907 36.355H176.683ZM185.678 44.9098H171.345V36.5112C171.345 34.4138 173.046 32.7135 175.143 32.7135H185.678C187.776 32.7135 189.476 34.4138 189.476 36.5112V41.1121C189.476 43.2095 187.776 44.9098 185.678 44.9098ZM204.485 18.1057C203.389 16.4852 203.883 14.2015 205.644 13.3495H197.791C197.382 13.8815 196.966 14.399 196.543 14.8943C195.28 16.3725 193.048 16.3461 191.404 15.3077C190.806 14.9299 190.225 14.5993 189.765 14.39C192.767 12.0201 195.366 8.60972 196.809 5.08376L198.78 5.57695C200.42 5.98737 201.295 7.75114 200.505 9.24555H216.788V9.5518C216.788 11.6492 215.087 13.3495 212.99 13.3495H206.683C207.806 14.5902 209.007 16.143 209.903 17.5718C210.574 18.6427 210.104 19.9894 208.989 20.5847C207.719 21.2626 206.12 20.711 205.371 19.4821C205.096 19.031 204.797 18.5683 204.485 18.1057ZM178.992 13.6548L179.891 13.2339H174.232C173.099 15.1484 171.879 16.9541 170.652 18.5445C169.425 20.1338 167.117 20.2894 165.417 19.2218C164.861 18.8729 164.329 18.5566 163.897 18.3206C167.477 15.1414 170.595 10.1126 172.385 5.14156L174.627 5.73503C176.116 6.12909 176.928 7.71862 176.311 9.12995H190.284V9.43619C190.284 11.5336 188.584 13.2339 186.487 13.2339H180.584C181.294 14.3196 181.981 15.6721 182.502 16.8986C182.942 17.936 182.448 19.0976 181.443 19.6074C180.116 20.2803 178.456 19.5573 177.87 18.1903C177.782 17.9866 177.692 17.7812 177.599 17.5754C176.937 16.1004 177.528 14.3404 178.992 13.6548ZM180.584 48.956C183.413 50.3433 186.531 52.193 188.379 53.5224L187.577 54.4584C186.275 55.9799 184.011 56.2314 182.333 55.1376C181.217 54.4105 179.998 53.6548 178.792 52.9472C178.075 52.5266 177.173 52.6437 176.541 53.1828C174.613 54.8268 172.443 56.2415 170.168 57.3991C168.517 58.2399 166.514 57.5725 165.266 56.2022C164.802 55.6934 164.339 55.2304 163.954 54.9097C169.786 52.9444 175.098 49.6497 177.466 45.1988L179.19 45.594C180.753 45.9522 181.574 47.6949 180.584 48.956ZM187.744 55.1987C193.345 53.2912 197.848 50.0543 199.523 45.3144L201.091 45.5603C202.748 45.8201 203.859 47.6177 202.93 49.0138C207.607 50.6323 212.919 52.8288 216.21 54.4473L214.942 55.9175C213.764 57.2825 211.79 57.6299 210.163 56.8538C207.591 55.6275 204.413 54.2957 201.382 53.1484C200.675 52.8806 199.883 53.0728 199.329 53.5868C197.7 55.0968 195.824 56.3549 193.798 57.4292C192.244 58.2529 190.326 57.7448 189.092 56.4919C188.603 55.996 188.122 55.5329 187.744 55.1987ZM64.6667 21.9097C66.4351 22.3428 68.2495 21.4531 68.8708 19.7417C69.1298 19.0285 69.3931 18.2776 69.659 17.5192L69.6592 17.5186L69.6595 17.5178L69.8362 17.014V23.4982C69.8362 24.0226 69.4112 24.4477 68.8868 24.4477H63.9466V11.153H68.8868C69.4112 11.153 69.8362 11.5781 69.8362 12.1025V13.9362C68.0186 13.9044 66.3455 15.1802 65.8675 17.02C65.4118 18.774 64.8841 20.5455 64.4086 21.8465L64.6667 21.9097ZM55.325 18.561C55.198 17.8621 55.0491 17.1488 54.8813 16.4474V23.4982C54.8813 24.0226 55.3064 24.4477 55.8307 24.4477H60.4822V11.153H55.8307C55.3063 11.153 54.8813 11.5781 54.8813 12.1025V13.6924C56.6109 13.5268 58.2535 14.5632 58.6871 16.2712C59.1809 18.2164 59.5418 20.2027 59.6161 21.6153C57.617 22.0398 55.6904 20.5717 55.325 18.561ZM49.32 40.6166C49.4254 42.7261 51.2302 44.345 53.3391 44.2269C54.5406 44.1596 55.7977 44.0904 57.0979 44.0188L57.0988 44.0188L57.0998 44.0187C62.6193 43.7148 68.9158 43.3682 75.033 42.9445L75.0381 42.8183C75.1284 40.5884 73.2857 38.7615 71.0566 38.8706C68.9009 38.9762 66.7488 39.0818 64.6395 39.1874V35.6614H74.2246V35.2974C74.2246 33.1999 72.5243 31.4996 70.4268 31.4996H64.6395V28.2048H70.2536C72.351 28.2048 74.0513 26.5045 74.0513 24.4071V11.1936C74.0513 9.09618 72.351 7.39586 70.2536 7.39586H54.6371C52.5397 7.39586 50.8394 9.09618 50.8394 11.1936V24.4071C50.8394 26.5045 52.5397 28.2048 54.6371 28.2048H59.847V31.4996H50.6084V31.8636C50.6084 33.9611 52.3087 35.6614 54.4062 35.6614H59.847V39.4186C57.2871 39.53 54.8703 39.6175 52.6884 39.6966L52.6858 39.6967L52.6816 39.6968L52.6808 39.6968L52.6804 39.6969L52.679 39.6969L52.676 39.697C51.4666 39.7408 50.3295 39.782 49.2804 39.8232L49.32 40.6166ZM51.7632 58.5513C53.5473 56.6378 54.5501 53.7546 55.2085 50.6841C55.6143 48.7917 54.39 46.9612 52.5196 46.4639L52.1097 46.3549C51.79 48.7017 51.23 51.1578 50.3355 53.2524C49.5383 55.1194 49.9781 57.5845 51.7632 58.5513ZM57.0177 46.5283C57.4454 48.5266 57.8072 50.8553 58.0214 52.9841C58.213 54.8885 59.912 56.3688 61.8102 56.1236C61.8102 54.2522 61.5362 51.7225 61.0826 49.3092C60.7403 47.488 59.0175 46.3212 57.1742 46.5121L57.0177 46.5283ZM62.5609 46.2971C63.2963 48.1201 64.0104 50.262 64.523 52.2328C64.9998 54.066 66.8369 55.3406 68.6814 54.9097C68.3998 53.1374 67.7536 50.7477 66.9579 48.4837C66.3699 46.8105 64.6163 45.9 62.875 46.2364L62.5609 46.2971ZM68.104 45.6613C69.1921 47.2611 70.3002 49.2217 71.1807 51.071C72.0591 52.9158 74.2507 53.9197 76.13 53.1178C75.5436 51.3566 74.3493 48.9565 72.9662 46.7562C72.0615 45.317 70.2451 44.8192 68.663 45.4414L68.104 45.6613ZM94.4917 50.1453C94.4917 50.6696 94.0667 51.0947 93.5423 51.0947H81.6732V38.4605C81.6732 37.9362 82.0983 37.5111 82.6226 37.5111H93.5423C94.0667 37.5111 94.4917 37.9362 94.4917 38.4605V50.1453ZM97.9694 22.7136C100.067 22.7136 101.767 21.0133 101.767 18.9158V17.7426H89.9879V9.34393C89.9879 7.24649 88.2876 5.54618 86.1902 5.54618H84.7912V32.5979H80.5629C78.4655 32.5979 76.7652 34.2982 76.7652 36.3956V56.0079H81.6732H94.4917H95.7752C97.8727 56.0079 99.573 54.3076 99.573 52.2102V36.3956C99.573 34.2982 97.8727 32.5979 95.7752 32.5979H89.9879V22.7136H97.9694ZM123.006 21.9804C124.685 22.2431 126.328 21.3536 126.913 19.7572C127.131 19.1604 127.353 18.5341 127.577 17.8966V23.4982C127.577 24.0226 127.152 24.4477 126.628 24.4477H121.688V11.153H126.628C127.152 11.153 127.577 11.5781 127.577 12.1025V13.659C125.77 13.6519 124.143 14.9345 123.679 16.7471C123.208 18.5889 122.65 20.478 122.15 21.8465L123.006 21.9804ZM113.066 18.561C112.939 17.8621 112.79 17.1488 112.622 16.4474V23.4982C112.622 24.0226 113.048 24.4477 113.572 24.4477H118.223V11.153H113.572C113.048 11.153 112.622 11.5781 112.622 12.1025V13.6924C114.352 13.5268 115.995 14.5632 116.428 16.2712C116.922 18.2164 117.283 20.2027 117.357 21.6153C115.358 22.0398 113.432 20.5717 113.066 18.561ZM107.061 40.6166C107.167 42.7261 108.971 44.345 111.08 44.2269C112.282 44.1596 113.539 44.0904 114.839 44.0188H114.839H114.839L114.842 44.0187C120.361 43.7148 126.657 43.3682 132.774 42.9445L132.779 42.8183C132.87 40.5884 131.027 38.7615 128.798 38.8706C126.642 38.9762 124.49 39.0818 122.381 39.1874V35.6614H131.966V35.2974C131.966 33.1999 130.265 31.4996 128.168 31.4996H122.381V28.2048H127.995C130.092 28.2048 131.793 26.5045 131.793 24.4071V11.1936C131.793 9.09618 130.092 7.39586 127.995 7.39586H112.378C110.281 7.39586 108.581 9.09618 108.581 11.1936V24.4071C108.581 26.5045 110.281 28.2048 112.378 28.2048H117.588V31.4996H108.35V31.8636C108.35 33.9611 110.05 35.6614 112.147 35.6614H117.588V39.4186C115.026 39.5301 112.607 39.6177 110.423 39.6968L110.422 39.6968L110.422 39.6969L110.421 39.6969L110.418 39.697C109.208 39.7408 108.071 39.782 107.022 39.8232L107.061 40.6166ZM109.504 58.5513C111.288 56.6378 112.291 53.7546 112.95 50.6841C113.355 48.7917 112.131 46.9612 110.261 46.4639L109.851 46.3549C109.531 48.7017 108.971 51.1578 108.077 53.2524C107.279 55.1194 107.719 57.5845 109.504 58.5513ZM114.759 46.5283C115.187 48.5266 115.548 50.8553 115.763 52.9841C115.954 54.8885 117.653 56.3688 119.551 56.1236C119.551 54.2522 119.277 51.7225 118.824 49.3092C118.482 47.488 116.759 46.3212 114.915 46.5121L114.759 46.5283ZM120.302 46.2971C121.037 48.1201 121.752 50.262 122.264 52.2328C122.741 54.066 124.578 55.3406 126.423 54.9097C126.141 53.1374 125.495 50.7477 124.699 48.4837C124.111 46.8105 122.358 45.9 120.616 46.2364L120.302 46.2971ZM125.845 45.6613C126.933 47.2611 128.041 49.2217 128.922 51.071C129.8 52.9158 131.992 53.9197 133.871 53.1178C133.285 51.3566 132.091 48.9565 130.707 46.7562C129.803 45.317 127.986 44.8192 126.404 45.4414L125.845 45.6613ZM152.233 50.1453C152.233 50.6696 151.808 51.0947 151.284 51.0947H139.414V38.4605C139.414 37.9362 139.839 37.5111 140.364 37.5111H151.284C151.808 37.5111 152.233 37.9362 152.233 38.4605V50.1453ZM155.711 22.7136C157.808 22.7136 159.508 21.0133 159.508 18.9158V17.7426H147.729V9.34393C147.729 7.24649 146.029 5.54618 143.931 5.54618H142.532V32.5979H138.304C136.207 32.5979 134.506 34.2982 134.506 36.3956V56.0079H139.414H152.233H153.516C155.614 56.0079 157.314 54.3076 157.314 52.2102V36.3956C157.314 34.2982 155.614 32.5979 153.516 32.5979H147.729V22.7136H155.711Z" fill="#3175FA"/>
</svg>
