<svg width="238" height="358" viewBox="0 0 238 358" fill="none" xmlns="http://www.w3.org/2000/svg">
<g clip-path="url(#clip0_333_64652)">
<path d="M185.892 97.279C186.05 77.9097 186.839 58.3533 188.26 38.6097C188.284 38.2178 188.313 37.8317 188.342 37.4397C189.093 27.1614 190.011 16.8459 191.098 6.49346V6.43496C191.097 4.72861 190.417 3.09245 189.208 1.88588C187.998 0.679316 186.359 0.00101824 184.649 0H11.696C9.9917 0.00334127 8.35772 0.678372 7.14985 1.87812C5.94198 3.07786 5.25804 4.70517 5.24693 6.4057C3.74605 20.6621 2.56957 34.8482 1.71751 48.9642C1.68233 49.4263 1.65889 49.8826 1.63544 50.3448C1.21332 57.3238 0.877184 64.2852 0.627038 71.2291C0.60945 71.6386 0.591857 72.0481 0.585994 72.4576C-1.01466 115.063 0.543237 157.728 5.24693 200.104C5.25926 201.803 5.94378 203.429 7.15155 204.628C8.35932 205.826 9.99261 206.501 11.696 206.504H184.649C186.359 206.503 187.998 205.824 189.208 204.618C190.417 203.411 191.097 201.775 191.098 200.069V200.004C190.248 192.475 189.501 184.898 188.858 177.271C188.764 176.154 188.672 175.037 188.583 173.919C188.137 168.426 187.748 162.912 187.416 157.376C187.345 156.258 187.281 155.141 187.222 154.024C186.595 142.944 186.185 131.778 185.991 120.527C185.968 119.409 185.95 118.298 185.933 117.175C185.862 111.682 185.841 106.167 185.868 100.631C185.868 99.5137 185.874 98.3963 185.892 97.279Z" fill="#3175FA"/>
<path d="M238 43.8747C237.999 42.1684 237.319 40.5322 236.11 39.3256C234.901 38.1191 233.261 37.4408 231.551 37.4398H58.5983C56.894 37.4431 55.26 38.1181 54.0522 39.3179C52.8443 40.5176 52.1604 42.1449 52.1493 43.8455C46.3099 99.4025 45.3425 153.977 49.253 206.504C49.7279 213.003 50.2829 219.469 50.9181 225.902C51.2581 229.348 51.6197 232.784 52.0027 236.21C52.0496 236.654 52.0965 237.099 52.1493 237.544C52.1616 239.243 52.8461 240.869 54.0539 242.068C55.2617 243.266 56.8949 243.94 58.5983 243.943H231.551C233.261 243.942 234.901 243.264 236.11 242.057C237.319 240.851 237.999 239.215 238 237.508V237.444C231.006 175.569 231.006 110.465 238 43.9332V43.8747Z" fill="white"/>
<path d="M238 43.8747C237.999 42.1684 237.319 40.5322 236.11 39.3256C234.901 38.1191 233.261 37.4408 231.551 37.4398H58.5983C56.894 37.4431 55.26 38.1181 54.0522 39.3179C52.8443 40.5176 52.1604 42.1449 52.1493 43.8455C46.3099 99.4025 45.3425 153.977 49.253 206.504C49.7279 213.003 50.2829 219.469 50.9181 225.902C51.2581 229.348 51.6197 232.784 52.0027 236.21C52.0496 236.654 52.0965 237.099 52.1493 237.544C52.1616 239.243 52.8461 240.869 54.0539 242.068C55.2617 243.266 56.8949 243.94 58.5983 243.943H231.551C233.261 243.942 234.901 243.264 236.11 242.057C237.319 240.851 237.999 239.215 238 237.508V237.444C231.006 175.569 231.006 110.465 238 43.9332V43.8747ZM236.827 237.544C236.817 238.933 236.257 240.263 235.268 241.242C234.28 242.222 232.944 242.772 231.551 242.773H58.5983C57.1996 242.771 55.8587 242.216 54.8696 241.229C53.8805 240.242 53.3239 238.904 53.3218 237.508V237.444C53.2808 237.07 53.2397 236.689 53.1987 236.315C52.7942 232.735 52.417 229.145 52.0672 225.545C51.4516 219.233 50.9063 212.886 50.4315 206.504C46.521 154.006 47.4825 99.4669 53.3218 43.9332V43.8747C53.3239 42.479 53.8805 41.1411 54.8696 40.1541C55.8587 39.1672 57.1996 38.6118 58.5983 38.6098H231.551C232.945 38.6102 234.283 39.161 235.271 40.142C236.26 41.1229 236.819 42.4543 236.827 43.8455C229.833 110.43 229.833 175.604 236.827 237.544Z" fill="#DADBE1"/>
<path d="M70.5198 97.2792C70.0749 97.2803 69.6486 97.4575 69.3344 97.7719C69.0202 98.0862 68.8438 98.512 68.8438 98.956C68.8438 99.3999 69.0202 99.8257 69.3344 100.14C69.6486 100.454 70.0749 100.632 70.5198 100.633H211.069C211.514 100.632 211.941 100.454 212.255 100.14C212.569 99.8257 212.745 99.3999 212.745 98.956C212.745 98.512 212.569 98.0862 212.255 97.7719C211.941 97.4575 211.514 97.2803 211.069 97.2792H70.5198Z" fill="#DADBE1"/>
<path d="M70.5198 107.341C70.0747 107.342 69.648 107.519 69.3335 107.833C69.0191 108.148 68.8424 108.574 68.8424 109.018C68.8424 109.462 69.0191 109.888 69.3335 110.202C69.648 110.517 70.0747 110.694 70.5198 110.695H165.934C166.379 110.694 166.806 110.517 167.12 110.202C167.434 109.888 167.611 109.462 167.611 109.018C167.611 108.574 167.434 108.148 167.12 107.833C166.806 107.519 166.379 107.342 165.934 107.341H70.5198Z" fill="#DADBE1"/>
<path d="M70.5198 117.175C70.0747 117.176 69.648 117.353 69.3335 117.667C69.0191 117.982 68.8424 118.408 68.8424 118.852C68.8424 119.296 69.0191 119.722 69.3335 120.036C69.648 120.351 70.0747 120.528 70.5198 120.529H211.069C211.515 120.528 211.941 120.351 212.256 120.036C212.57 119.722 212.747 119.296 212.747 118.852C212.747 118.408 212.57 117.982 212.256 117.667C211.941 117.353 211.515 117.176 211.069 117.175H70.5198Z" fill="#DADBE1"/>
<path d="M70.5198 127.237C70.0749 127.238 69.6486 127.415 69.3344 127.729C69.0202 128.044 68.8438 128.47 68.8438 128.914C68.8438 129.357 69.0202 129.783 69.3344 130.098C69.6486 130.412 70.0749 130.589 70.5198 130.59H165.934C166.379 130.589 166.805 130.412 167.119 130.098C167.433 129.783 167.61 129.357 167.61 128.914C167.61 128.47 167.433 128.044 167.119 127.729C166.805 127.415 166.379 127.238 165.934 127.237H70.5198Z" fill="#DADBE1"/>
<path d="M70.5198 154.024C70.0749 154.025 69.6486 154.202 69.3344 154.516C69.0202 154.831 68.8438 155.257 68.8438 155.701C68.8438 156.145 69.0202 156.57 69.3344 156.885C69.6486 157.199 70.0749 157.376 70.5198 157.377H211.069C211.514 157.376 211.941 157.199 212.255 156.885C212.569 156.57 212.745 156.145 212.745 155.701C212.745 155.257 212.569 154.831 212.255 154.516C211.941 154.202 211.514 154.025 211.069 154.024H70.5198Z" fill="#DADBE1"/>
<path d="M70.5198 164.086C70.0747 164.086 69.648 164.263 69.3335 164.578C69.0191 164.892 68.8424 165.318 68.8424 165.762C68.8424 166.206 69.0191 166.633 69.3335 166.947C69.648 167.261 70.0747 167.438 70.5198 167.439H165.934C166.379 167.438 166.806 167.261 167.12 166.947C167.434 166.633 167.611 166.206 167.611 165.762C167.611 165.318 167.434 164.892 167.12 164.578C166.806 164.263 166.379 164.086 165.934 164.086H70.5198Z" fill="#DADBE1"/>
<path d="M70.5198 173.92C70.0747 173.92 69.648 174.097 69.3335 174.412C69.0191 174.726 68.8424 175.152 68.8424 175.596C68.8424 176.041 69.0191 176.467 69.3335 176.781C69.648 177.095 70.0747 177.272 70.5198 177.273H211.069C211.515 177.272 211.941 177.095 212.256 176.781C212.57 176.467 212.747 176.041 212.747 175.596C212.747 175.152 212.57 174.726 212.256 174.412C211.941 174.097 211.515 173.92 211.069 173.92H70.5198Z" fill="#DADBE1"/>
<path d="M70.5198 183.981C70.0749 183.982 69.6486 184.16 69.3344 184.474C69.0202 184.788 68.8438 185.214 68.8438 185.658C68.8438 186.102 69.0202 186.528 69.3344 186.842C69.6486 187.157 70.0749 187.334 70.5198 187.335H165.934C166.379 187.334 166.805 187.157 167.119 186.842C167.433 186.528 167.61 186.102 167.61 185.658C167.61 185.214 167.433 184.788 167.119 184.474C166.805 184.16 166.379 183.982 165.934 183.981H70.5198Z" fill="#DADBE1"/>
<path d="M98.3293 76.459H71.4847C71.137 76.4586 70.8037 76.3206 70.5578 76.0753C70.312 75.83 70.1736 75.4973 70.1732 75.1504V70.8588C70.1736 70.5118 70.312 70.1792 70.5578 69.9339C70.8037 69.6886 71.137 69.5506 71.4847 69.5502H98.3293C98.677 69.5506 99.0103 69.6886 99.2562 69.9339C99.502 70.1792 99.6403 70.5118 99.6407 70.8588V75.1504C99.6403 75.4973 99.502 75.83 99.2562 76.0753C99.0103 76.3206 98.677 76.4586 98.3293 76.459Z" fill="#3175FA"/>
<path d="M191.588 214.504L183.365 217.216C181.995 217.668 180.624 218.119 179.254 218.571C177.984 218.988 176.611 219.484 175.252 219.305C174.313 219.181 173.243 218.642 172.95 217.678C172.673 216.766 173.26 215.811 173.971 215.272C175.933 213.782 178.414 215.298 179.805 216.841C181.505 218.728 182.468 221.163 184.063 223.138C185.483 224.909 187.283 226.339 189.33 227.324C193.4 229.241 198.363 229.037 201.993 226.244C206.327 222.907 206.77 217.125 206.793 212.081C206.785 211.853 206.689 211.638 206.525 211.48C206.36 211.322 206.141 211.233 205.913 211.233C205.685 211.233 205.466 211.322 205.302 211.48C205.138 211.638 205.042 211.853 205.034 212.081C205.013 216.653 204.752 222.257 200.574 225.118C196.572 227.858 191.313 227.131 187.628 224.212C185.575 222.584 184.312 220.463 182.964 218.266C181.648 216.121 180.014 214.042 177.538 213.208C176.476 212.823 175.313 212.816 174.247 213.187C173.18 213.559 172.274 214.287 171.683 215.248C171.413 215.701 171.243 216.207 171.185 216.731C171.126 217.255 171.179 217.786 171.342 218.287C171.505 218.789 171.773 219.251 172.129 219.641C172.484 220.031 172.919 220.342 173.404 220.551C176.275 221.917 179.56 220.317 182.325 219.405L192.055 216.197C193.125 215.844 192.667 214.148 191.588 214.504L191.588 214.504Z" fill="#3175FA"/>
<path d="M167.221 343.496L161.455 345.391L151.384 324.103L159.894 321.306L167.221 343.496Z" fill="#FFB8B8"/>
<path d="M171.334 348.33L170.941 347.142L169.909 344.013L169.206 341.883L167.283 342.515L166.884 342.486L161.602 342.129L160.898 342.082L159.855 342.012L158.776 341.936L155.762 346.306H155.757C154.63 346.672 153.588 347.258 152.69 348.029C151.792 348.8 151.057 349.742 150.527 350.799C150.463 350.927 150.404 351.056 150.345 351.185C150.2 351.5 150.076 351.824 149.976 352.156C149.52 353.59 149.435 355.115 149.73 356.59C149.805 356.956 149.901 357.317 150.017 357.672L150.035 357.731L150.105 357.947L150.527 357.807L154.232 356.59L167.213 352.326L169.786 351.477L170.578 351.214H170.584L172.12 350.711L171.334 348.33Z" fill="#191A1B"/>
<path d="M112.568 348.5L106.498 348.5L103.61 325.136L112.569 325.137L112.568 348.5Z" fill="#FFB8B8"/>
<path d="M102.853 246.08L100.162 250.725C100.162 250.725 97.2052 251.531 98.1716 261.149C98.854 267.94 99.0754 298.348 100.793 318.103C101.508 326.325 102.483 332.702 103.857 334.762L104.704 335.519L113.537 336.361L113.76 336.283L117.004 313.424C117.586 309.32 117.499 305.15 116.746 301.074L116.159 294.639L124.293 262.056C124.293 262.056 132.575 282.939 137.852 302.829C139.122 307.617 143.946 310.662 145.776 314.77C146.389 316.147 146.991 317.481 147.578 318.761C151.447 327.188 153.386 333.324 154.854 333.834H156.026L163.062 331.494L164.446 328.022L153.681 296.394L145.62 245.327C130.261 237.087 115.854 236.17 102.853 246.08Z" fill="#191A1B"/>
<path d="M146.851 177.271C146.321 176.106 145.697 174.985 144.987 173.919C143.362 171.393 141.105 169.334 138.438 167.947L136.128 167.438L131.989 166.525L129.808 164.086L126.232 160.09H113.92L112.272 164.086L110.889 167.438L110.296 168.865L99.7552 174.124C99.7493 174.124 99.7493 174.124 99.7434 174.13C99.8841 175.183 100.023 176.23 100.16 177.271C100.459 179.535 100.74 181.772 101.004 183.981C101.139 185.104 101.268 186.222 101.391 187.333C101.784 190.82 102.122 194.246 102.405 197.612C102.657 200.619 102.859 203.583 103.009 206.504C103.376 213.138 103.403 219.786 103.091 226.423C103.009 227.985 104.563 229.763 104.44 231.29C104.234 233.782 102.305 235.993 101.965 238.374C101.754 239.837 101.848 241.393 101.479 242.773C101.376 243.177 101.222 243.566 101.022 243.932C101.022 243.938 101.016 243.938 101.016 243.943C96.7944 251.466 100.107 247.875 99.7141 249.565L99.9017 249.612C99.9897 249.635 100.259 249.706 100.693 249.805C103.173 250.396 113.398 240.819 120.263 240.819C124.385 240.819 135.295 247.582 138.948 248.073C141.838 248.46 144.418 248.811 145.954 247.459C146.4 247.065 146.74 246.566 146.945 246.008L146.962 245.956L146.957 245.903L146.81 243.943L146.722 242.773L145.467 225.984C144.767 225.117 144.324 224.072 144.189 222.966C144.054 221.861 144.233 220.74 144.705 219.73L144.963 219.186L144.013 206.504L143.838 204.134L143.773 203.333V203.327L143.316 197.202L144.418 193.856V193.85L146.564 187.333L147.666 183.981L148.358 181.875L148.405 181.735C148.036 180.2 147.515 178.704 146.851 177.271Z" fill="#3175FA"/>
<path d="M157.547 237.765L145.728 207.286L140.238 196.157L150.794 190.338L159.296 205.284L164.995 236.512C165.892 237.123 166.585 237.988 166.986 238.995C167.387 240.002 167.477 241.106 167.244 242.165C167.011 243.223 166.466 244.188 165.68 244.936C164.893 245.683 163.901 246.179 162.83 246.359C161.759 246.54 160.658 246.396 159.669 245.948C158.681 245.499 157.849 244.766 157.281 243.842C156.713 242.918 156.435 241.846 156.482 240.763C156.53 239.68 156.9 238.636 157.547 237.765H157.547Z" fill="#FFB8B8"/>
<path d="M157.785 195.775L154.76 193.821L151.283 187.333L149.489 183.981L148.358 181.875L147.877 180.974L142.442 177.271L138.772 174.768L135.782 177.271L134.357 178.465L135.753 183.981L136.597 187.333L138.438 194.605L143.838 204.134L145.18 206.504L145.948 207.867L145.954 207.878L146.06 208.06L159.702 207.492L160.13 207.475L160.154 206.504L160.165 206.153C160.171 205.977 160.171 205.802 160.171 205.626C160.17 202.2 159.352 198.824 157.785 195.775Z" fill="#3175FA"/>
<path d="M54.5265 225.644L78.7053 203.598L87.1084 194.457L96.3717 202.162L85.4966 215.488L58.3988 232.115C58.1535 233.171 57.5975 234.129 56.8021 234.867C56.0067 235.605 55.0083 236.089 53.9352 236.257C52.8621 236.424 51.7632 236.268 50.7799 235.808C49.7965 235.347 48.9735 234.604 48.4167 233.674C47.8598 232.743 47.5944 231.668 47.6547 230.586C47.715 229.503 48.0982 228.464 48.755 227.601C49.4118 226.738 50.3123 226.09 51.3407 225.741C52.3692 225.393 53.4786 225.359 54.5265 225.644H54.5265Z" fill="#FFB8B8"/>
<path d="M104.44 187.333L104.393 183.981L104.305 177.271L104.269 174.668L104.17 174.598C103.624 174.241 103.005 174.009 102.358 173.919C101.79 173.825 101.209 173.825 100.64 173.919C100.341 173.966 100.045 174.034 99.7552 174.124C99.7493 174.124 99.7493 174.124 99.7434 174.13C98.0056 174.752 96.471 175.837 95.3053 177.265L95.2994 177.271C93.5413 179.358 91.9828 181.605 90.6443 183.981C89.9818 185.104 89.3487 186.239 88.7565 187.333C86.5169 191.493 84.9047 195.096 84.8754 195.161L78.18 203.836L78.2738 203.994L79.7454 206.504L85.1392 215.706L85.9951 217.168L88.182 216.004C90.7311 214.647 92.741 212.464 93.8807 209.815L94.6604 206.843L94.9477 206.504L102.405 197.612L104.539 195.061L104.44 187.333Z" fill="#3175FA"/>
<path d="M129.993 148.642C130.991 142.502 126.813 136.718 120.66 135.722C114.507 134.725 108.71 138.895 107.711 145.034C106.713 151.173 110.891 156.958 117.044 157.954C123.197 158.95 128.994 154.781 129.993 148.642Z" fill="#FFB8B8"/>
<path d="M107.942 139.455C107.44 137.703 106.437 136.202 106.939 136.202C107.44 136.202 107.691 134.951 107.691 134.951C107.691 134.951 108.193 134.7 108.443 134.951C108.694 135.201 108.945 133.199 108.945 133.199C108.945 133.199 109.196 132.448 109.447 132.948C109.697 133.449 109.697 133.199 109.948 132.448C110.199 131.697 111.453 131.197 111.453 131.197C111.453 131.197 116.218 131.447 116.971 130.446C117.723 129.445 126.251 130.196 128.006 131.447C129.762 132.698 136.679 134.935 132.575 141.955C134.92 146.05 131.419 153.354 130.514 154.22C129.084 155.591 128.094 156.085 121.325 157.429C120 157.692 116.746 146.635 116.746 146.635C116.746 146.635 108.443 141.207 107.942 139.455Z" fill="#191A1B"/>
<path d="M112.935 347.587L112.571 347.441L106.04 344.785L105.038 344.381L100.805 347.587H100.799C98.4071 347.59 96.1144 348.539 94.4238 350.227C92.7332 351.915 91.783 354.204 91.7817 356.59V356.883H114.957V347.587H112.935Z" fill="#191A1B"/>
<path d="M58.0003 0C57.0779 16.3606 51.0508 32.0237 40.7628 44.7962C30.4748 57.5687 16.4412 66.8111 0.626951 71.2291C0.609362 71.6386 0.59177 72.0481 0.585907 72.4576C16.7278 68.0268 31.0671 58.6487 41.5794 45.6477C52.0916 32.6466 58.2458 16.6792 59.1729 0H58.0003Z" fill="white"/>
<path d="M40.0426 0C37.318 10.3291 32.5151 19.9969 25.9264 28.4147C19.3376 36.8325 11.1008 43.8242 1.71742 48.9642C1.68224 49.4263 1.6588 49.8826 1.63535 50.3447C11.36 45.1305 19.8994 37.9668 26.7176 29.3031C33.5358 20.6395 38.4855 10.663 41.2561 0H40.0426Z" fill="white"/>
</g>
<defs>
<clipPath id="clip0_333_64652">
<rect width="238" height="358" fill="white"/>
</clipPath>
</defs>
</svg>
